P2
4 4
255
156 171 227 161
182 219 236 234
134 175 142 109
182 251 246 224
