P2
6 6
255
0 11 12 13 18 67 
10 25 23 12 26 73
12 47 29 48 27 37
25 17 28 27 25 29
14 47 28 18 29 26
12 32 23 2 21 27
