P2
3 3
255
0 12 18
12 29 27
14 28 29
