P2
2 2
255
0 13
25 27
