P2
2 2
255
25 22
26 82
