P2
2 2
255
78 29
15 16
