P2
3 3
255
3 4 29
7 8 26
11 12 144
