P2
3 3
255
6 1 2
8 5 6
14 9 10
