P2
3 3
255
11 12 15
25 22 82
26 82 19
