P2
2 2
255
93 27
83 66
