P2
2 2
255
82 18
19 29
