P2
3 3
255
16 1 29
18 47 47
29 37 36
