P2
9 9
255
1 2 5 6 1 2 3 4 29
3 4 7 8 5 6 7 8 26
9 10 13 14 9 10 11 12 144
11 12 15 16 1 29 12 72 252
25 22 82 18 47 47 78 29 21
26 82 19 29 37 36 15 16 99
93 27 99 25 15 66 144 68 211
83 66 25 34 13 131 26 16 28
21 72 18 26 55 77 22 18 28
