P2
2 2
255
144 68
26 16
