P2
2 2
255
99 25
25 34
