P2
2 2
255
11 12
12 72
