P2
3 3
255
93 27 99
83 66 25
21 72 18
