P2
2 2
255
3 4
7 8
