P2
2 2
255
47 47
37 36
