P2
3 3
255
25 15 66
34 13 131
26 55 77
