P2
3 3
255
1 2 5
3 4 7
9 10 13
