P2
3 3
255
12 72 252
78 29 21
15 16 99
