P2
3 3
255
4 5 6
4 5 6
4 5 6
