P2
2 2
255
9 10
11 12
