P2
8 8
255
1 2 5 6 1 2 3 4 
3 4 7 8 5 6 7 8 
9 10 13 14 9 10 11 12 
11 12 15 16 1 29 12 72 
25 22 82 18 47 47 78 29 
26 82 19 29 37 36 15 16 
93 27 99 25 15 66 144 68 
83 66 25 34 13 131 26 16 
