P2
2 2
255
13 14
15 16
