P2
3 3
255
144 68 211
26 16 28
22 18 28
