P2
2 2
255
15 66
13 131
